<svg xmlns="http://www.w3.org/2000/svg" viewBox="0 0 666.89 271.92"><defs><style>.cls-1{fill:#ccc;}</style></defs><title>new light grey</title><g id="Layer_3" data-name="Layer 3"><path class="cls-1" d="M201.9,58.07c9.65,0,9.67-15,0-15s-9.67,15,0,15Z" transform="translate(-13.07 -18.17)"/><path class="cls-1" d="M207.55,161c13.51,0,13.53-21,0-21s-13.54,21,0,21Z" transform="translate(-13.07 -18.17)"/><path class="cls-1" d="M227,29.62c-47.8-6.26-96.07-4.13-144-.93-20.52,1.36-47.15-.3-55.9,22.81C23.35,61.4,24,73,23.52,83.41l-1.68,36.94-1.65,36c-.53,11.66-2.3,24-.4,35.59,4,24.41,31.51,26.43,51.1,30.07,47.46,8.82,95.41,15.6,143.68,17.55,54.25,2.18,108.52-1.12,162.67-4.41,5.66-.35,10.5-4.58,10.5-10.5,0-5.42-4.81-10.85-10.5-10.5-45.3,2.75-90.65,5.51-136.06,5.06a880.61,880.61,0,0,1-132.87-11.89q-16.44-2.67-32.8-5.74-8.17-1.53-16.35-3.12c-4.4-.87-9.27-1.53-13.37-3.46-7.29-3.43-5.81-11.89-5.51-18.68q.77-17,1.55-34,1.56-33.94,3.1-67.9c.29-6.25-.64-16.36,5.34-20.36,6.51-4.36,17.47-3.34,24.88-3.84,50.54-3.47,101.44-6.2,151.86.4,5.63.74,10.5-5.36,10.5-10.5,0-6.29-4.85-9.76-10.5-10.5Z" transform="translate(-13.07 -18.17)"/><path class="cls-1" d="M27,179.7A160.77,160.77,0,0,0,66.5,217.12c10.06,6.68,21.06-8.2,12.73-16.49a197.52,197.52,0,0,1-38.37-54L24.37,159.35c18.7,22.74,37.85,45.26,62.75,61.48,10.12,6.6,21-8.14,12.72-16.49-19.39-19.52-40.05-40-49.87-66.27l-19.19,8.09a362.19,362.19,0,0,0,87.36,84c4.69,3.19,11.64.89,14.37-3.77,3.15-5.38.77-10.93-3.77-14.36-31.48-23.83-56.59-55.42-73.64-90.94L37,131.65c29.34,42.51,65.48,81.51,111.67,105.81,12.08,6.35,21.67-10.5,10.6-18.13a303.6,303.6,0,0,1-96-108.83L45.07,121.1A293,293,0,0,0,181.5,234.16c11,4.49,18.51-13.72,8.09-19.19A311.57,311.57,0,0,1,73.66,109.89L57.17,122.61a414.52,414.52,0,0,0,125.08,98.57l10.6-18.13A423.51,423.51,0,0,1,109,152a379.64,379.64,0,0,1-36-31.85c-10.4-10.58-19.43-22.34-21.86-37.33L31.87,91l34.07,47.28c3.31,4.59,9.14,6.82,14.37,3.76,4.76-2.78,6.83-9.56,3.76-14.36A178.52,178.52,0,0,1,58.13,58.58l-19.2,8.1a612.13,612.13,0,0,0,35.29,64.73c7.24,11.58,24,1.49,18.13-10.6A278.21,278.21,0,0,1,68.64,44.87L48.39,50.45A560,560,0,0,0,82.7,129.91c2.65,5,9.63,6.54,14.37,3.77,5.35-3.13,6.06-9.16,3.77-14.37A174.47,174.47,0,0,1,86.29,52L65.66,54.77c12.47,37.32,25.21,75,45.58,108.88,7,11.57,25.11,1,18.13-10.6-16.13-26.91-35.24-57.83-30.31-90.71L79.87,64.85l46.41,108.09,18.14-10.6a392.06,392.06,0,0,1-25-52.13q-5.23-13.48-9.5-27.32-2.13-6.92-4-13.9c-1-3.81-3.13-9.13-2.79-12.46l-1.43,5.3q-13-3.8-9.3,1.71c-.6-.33-.37.28.68,1.84.92,2.48,1.87,5,2.8,7.43l5.61,14.84,10.86,28.76,22.07,58.45,19.19-8.09c-19.35-39.46-39.33-81-35.43-126.2l-19.57,5.3C125.94,99.54,133.11,164,178,207.71c9.73,9.49,23.95-4.9,14.85-14.85a569.47,569.47,0,0,1-49.05-61.65c-7.57-11-24.93-1.3-18.13,10.59a337.07,337.07,0,0,0,66,82.28l14.85-14.85a228.4,228.4,0,0,1-48.59-51.38L143.5,172.21a105.87,105.87,0,0,1,22.69,17.42c9.54,9.6,24.39-5.24,14.85-14.85a127.54,127.54,0,0,0-26.94-20.7c-8.67-5-20.49,5.38-14.36,14.37a245.28,245.28,0,0,0,51.87,55.63c4.47,3.48,10.49,4.36,14.85,0,3.87-3.87,4.22-11,0-14.85a318.76,318.76,0,0,1-62.7-78L125.63,141.8A609.54,609.54,0,0,0,178,207.71l14.85-14.85C149.88,151,143,86.8,116.76,35.28c-2.09-4.11-7.57-6-11.86-4.83-4.71,1.29-7.31,5.48-7.71,10.12-4.22,48.82,17.39,94.17,38.3,136.8,5.17,10.54,23.42,3.1,19.19-8.1Q134,114.54,113.34,59.8c-3.34-8.81-9-18.29-20.18-15.89a13.57,13.57,0,0,0-9.59,7.32c-2.57,5-1.21,10.3.07,15.46a406.89,406.89,0,0,0,16.2,50.79,432,432,0,0,0,26.44,55.46,10.67,10.67,0,0,0,14.37,3.76c5.39-3.15,6-9.13,3.77-14.36L98,54.25c-3.43-8-17.89-6.13-19.19,2.51-5.92,39.46,12.8,74.16,32.43,106.89l18.13-10.6C109.9,120.66,97.82,84.86,85.91,49.18,82.29,38.32,65.07,39.65,65.29,52A200.88,200.88,0,0,0,82.7,129.91l18.14-10.6a523.78,523.78,0,0,1-32.2-74.44c-4.45-13-22.41-7.64-20.25,5.58a296.44,296.44,0,0,0,25.83,81l18.13-10.6A610.24,610.24,0,0,1,57.07,56.08c-2.2-4.68-8.72-6.23-13.12-4.3-5.13,2.26-6.9,7-6.07,12.39a193.15,193.15,0,0,0,28.06,74.07l18.13-10.6L50,80.36c-7.1-9.86-21.12-3.82-19.19,8.09,2.71,16.67,12.62,30.94,23.9,43.08,11.59,12.47,24.72,23.71,38,34.28a444.86,444.86,0,0,0,89.5,55.37c5.15,2.39,11.32,1.46,14.37-3.76,2.75-4.7,1.3-11.77-3.77-14.37A398.81,398.81,0,0,1,72,107.76c-7.75-9-23,2.77-16.5,12.73A333,333,0,0,0,179,233.1l8.09-19.19C136.46,193.31,92.65,156.46,63.2,110.5c-7.29-11.39-24.42-1.4-18.13,10.6A325.6,325.6,0,0,0,148.64,237.46l10.6-18.13c-43-22.63-76.79-58.66-104.14-98.28-7.7-11.16-24-1.62-18.13,10.6,18.69,38.95,46.78,72.44,81.17,98.47L128.74,212a332.58,332.58,0,0,1-79.83-76.43c-3.11-4.2-8-6.56-13.11-4.3-4.43,2-7.94,7.41-6.08,12.39,11.2,30,33.07,53.19,55.27,75.54L97.71,202.7c-23.24-15.15-41-37-58.49-58.2-3.29-4-10-3.8-13.79-.82-4.28,3.41-5.05,8.71-2.71,13.54a214.82,214.82,0,0,0,41.66,58.25L77.1,199a131.25,131.25,0,0,1-32-29.88c-3.41-4.51-9.06-6.87-14.36-3.76-4.45,2.6-7.21,9.81-3.77,14.36Z" transform="translate(-13.07 -18.17)"/><path class="cls-1" d="M139.42,42.07l-6.36-3.26c-5.1-2.61-11.31-1.32-14.37,3.76a44.87,44.87,0,0,0-6.12,16.77c-.66,4.7.45,9.29,4.83,11.85,3.71,2.17,9.86,2,12.72-1.64l13.59-17L126.16,42.35l-6.62,41.17c-1.91,11.86,12,18,19.19,8.09L168,51.35l-19.19-8.09q-12.54,39.69-25.09,79.37c-3.52,11.11,14.36,19.12,19.19,8.09,11.18-25.54,22.75-52,44.1-70.77L170.56,47.23c-13.84,31.25-27.78,62.75-35,96.32-1.09,5.09,1.09,10.37,6.08,12.38,4.41,1.78,11,.54,13.12-4.29,14.81-33,29.87-66.92,54-94.32L192.29,44.59c-14,29.51-28.14,59.32-36,91.18a10.54,10.54,0,0,0,6.08,12.39c4.48,1.8,10.85.5,13.11-4.3A772.74,772.74,0,0,1,224,56.11l-18.13-10.6a363.13,363.13,0,0,0-42.11,112c-1,5.12,1,10.35,6.08,12.39,4.35,1.75,11,.57,13.11-4.3,15.5-36.32,31.21-72.81,53.69-105.47l-18.13-10.6c-19.05,39.82-38.36,80.35-45.82,124.22-2.29,13.43,15.23,18.13,20.25,5.58q17.82-44.59,40-87.23L213.8,84,181.58,187.42c-1.69,5.42,2,11.45,7.33,12.92,6,1.66,10.75-2.07,12.92-7.33l31.9-77.56-20.25-5.58-22.36,87.4c-2.84,11.09,13.95,19.22,19.19,8.09l19.81-42L210.55,158A400.19,400.19,0,0,1,202,209.62c-3.05,13.17,16.25,18.53,20.25,5.59l8.59-27.82-20.25-5.58L206.2,207c-1,5.58,1.49,11.31,7.33,12.92,5.06,1.39,11.94-1.72,12.92-7.34l4.39-25.19c2.29-13.13-16.19-18.72-20.25-5.58L202,209.62l20.25,5.59a444.06,444.06,0,0,0,9.3-57.18c1-10.23-15.22-14.53-19.57-5.3l-19.8,42,19.19,8.09,22.36-87.4a10.69,10.69,0,0,0-7.34-12.91c-6-1.66-10.75,2.06-12.91,7.33l-31.9,77.55L201.83,193,234.05,89.55c3.5-11.24-13.67-18.72-19.19-8.09q-23.38,45-42.16,92.25L193,179.29c7.17-42.17,25.39-80.93,43.7-119.2,5.84-12.21-10.43-21.8-18.13-10.6C196,82.15,180.33,118.65,164.83,155L184,163.05A345.49,345.49,0,0,1,224,56.11c6.81-11.76-10.86-21.94-18.13-10.6a772.74,772.74,0,0,0-48.52,87.75l19.19,8.1c7.43-30.17,20.58-58.24,33.87-86.17,2.24-4.72,1.7-10.25-2.71-13.54-4-3-10.27-3.17-13.78.82-25.48,28.9-41.68,63.73-57.32,98.57l19.19,8.09c6.85-31.81,19.78-61.67,32.89-91.3,4.74-10.71-7.12-21-16.49-12.73-22.71,20-35.49,47.84-47.39,75L144,128.21q12.56-39.68,25.1-79.37c1.56-4.93-1.43-10.51-6.08-12.39-5.16-2.07-9.94-.05-13.11,4.3L120.6,81l19.19,8.09,6.62-41.17c.75-4.68-.5-9.33-4.83-11.86-3.71-2.17-9.86-1.94-12.72,1.64l-13.59,17,17.55,10.22a30,30,0,0,1,4-11.75l-14.36,3.77,6.36,3.26c5.05,2.58,11.4,1.32,14.37-3.77,2.74-4.69,1.3-11.77-3.77-14.36Z" transform="translate(-13.07 -18.17)"/><path class="cls-1" d="M172,67.66a396.17,396.17,0,0,0,65.79,2.24c13.42-.66,13.6-21.16,0-21-29.21.33-64.3,3.48-80,32.33-7,12.94-8.57,28.07-7.95,42.58.67,15.74,3.95,31.89.8,47.55-2.65,13.17,16.23,18.61,20.25,5.58l10.33-33.48c1.68-5.42-2-11.45-7.33-12.92-5.92-1.63-10.88,2-12.92,7.33a120.37,120.37,0,0,0-7.51,35.73c-.35,5.66,5.07,10.5,10.5,10.5,6,0,10.15-4.82,10.5-10.5a101.73,101.73,0,0,1,6.76-30.14L161,137.87l-10.33,33.49,20.25,5.58c3-14.77,1.71-29.32.53-44.2-1-12.41-1.85-25.78,2.91-37.59,9.92-24.59,41.18-25,63.43-25.25v-21A396.17,396.17,0,0,1,172,46.66c-5.64-.66-10.5,5.31-10.5,10.5,0,6.23,4.84,9.84,10.5,10.5Z" transform="translate(-13.07 -18.17)"/><path class="cls-1" d="M177.77,56.68A101.5,101.5,0,0,1,211,47.1c4.67-.49,8.81-2.92,10.12-7.7,1.15-4.17-.65-9.95-4.82-11.86a54.33,54.33,0,0,0-34.94-4c-5.05,1.08-8.26,6.67-7.53,11.52a10.59,10.59,0,0,0,10.32,9.11c99.52,5.62,199.2-4.12,298.72,1.5a725.57,725.57,0,0,1,82.93,9.11l2.79-20.63c-89.8,10.48-180.36-11.3-269.86,4.74A265,265,0,0,0,231,60.49c-9.17,4.39-5,20.57,5.3,19.57,37-3.61,74-7.57,111.06-10.45,36.25-2.81,72.83-4.54,109.12-1.45A304.83,304.83,0,0,1,516,79.06V58.81c-83.48,13.46-168.58-2.52-252.16,10.75a286.76,286.76,0,0,0-65.46,18.06c-4.83,2-8.37,5.93-7.52,11.52.71,4.72,5,9.64,10.31,9.11,56.13-5.64,113.39-11.59,169.53-2.81l2.79-20.63c-64.22,6.65-129.41,13.88-188.4,42-4.66,2.22-6.23,8.7-4.29,13.11,2.28,5.2,7,6.82,12.39,6.08l154.48-21.26-5.59-20.25c-45.87,17.25-96.35,16.92-141.58,36.29-10.5,4.5-27.95,10.75-28.6,24.26-.31,6.5,3.58,12.66,9.22,15.77,7,3.84,14.62,2.28,22,1.05l85-14.12c-.92.15,5.31-.75,3.75-.61-.76.07,3.3-.54,2.08-.08l1.14.31q-4.62-1.86-3.18-7c-.5-.07-.75.78-1.29,1-3.13,1-6.71,4-9.58,5.67L271,172.93,229,197.66c-11.64,6.85-1.09,25,10.6,18.13l37-21.76,16.82-9.89c5.73-3.36,12.07-6.47,15.95-12.08a16.17,16.17,0,0,0,.46-18.41c-3.62-5.55-10.4-7.65-16.74-7.56-6.09.08-12.28,1.68-18.27,2.68l-21.51,3.57-43,7.14c-5.77,1-11.89,2.75-17.74,2.83-4.28.05-.58-.2-.95.28l.31,6.19.21-.19c1.05-.08,3.21-1.91,4.15-2.44q2.17-1.22,4.39-2.36C221.5,153,244.86,148,267.75,143.66c26.91-5.13,54.16-9.25,79.92-18.94,5.3-2,8.93-7.09,7.33-12.92-1.67-6.06-7.28-8.11-12.92-7.33L187.6,125.73l8.09,19.19c55.38-26.38,117.54-32.87,177.8-39.11,5.19-.53,9.65-3.58,10.31-9.1.56-4.68-2.3-10.7-7.52-11.52C318,76.08,259.45,81.4,201.17,87.25L204,107.87C281.28,75.66,366.33,86.65,447.8,85.19a522.24,522.24,0,0,0,73.78-6.13c10.74-1.73,9.21-17.56,0-20.25-71.7-20.91-148.39-13.05-221.55-6q-31.87,3.07-63.74,6.21l5.3,19.56c77.7-37.18,167.3-23.05,250.14-20.81,25.67.7,51.37.3,76.9-2.68,5.19-.6,9.65-3.52,10.31-9.1.57-4.74-2.3-10.62-7.52-11.52-99.75-17.24-201-10.2-301.6-9.55-28.56.19-57.12-.2-85.63-1.81L187,43.77a30.24,30.24,0,0,1,18.76,1.9L211,26.1a131,131,0,0,0-43.87,12.44c-5.1,2.47-6.47,9.75-3.77,14.37,3,5.21,9.25,6.25,14.37,3.77Z" transform="translate(-13.07 -18.17)"/><path class="cls-1" d="M333.08,103l3.4-2.24a11.13,11.13,0,0,0,4.83-6.27,8,8,0,0,0,.18-4.19,7.81,7.81,0,0,0-1.24-3.9,10.5,10.5,0,0,0-14.37-3.77l-3.4,2.23a11.15,11.15,0,0,0-4.83,6.28,8,8,0,0,0-.19,4.19,7.88,7.88,0,0,0,1.25,3.9A10.5,10.5,0,0,0,333.08,103Z" transform="translate(-13.07 -18.17)"/><path class="cls-1" d="M327.34,81a447.57,447.57,0,0,0-145,106.53c-9.05,10,4.92,24.12,14.85,14.85a524,524,0,0,1,139.32-93.11l-10.6-18.14c-24.53,16.07-49.5,31.61-73.47,48.5C231,154.68,210.79,171.93,197.7,195c-4.83,8.51,5.47,20.86,14.37,14.36,43.43-31.7,87.27-63.53,136.51-85.72L338,105.48c-40.61,28-81.5,56.22-116.18,91.52-8.12,8.26,2.53,23.28,12.72,16.49L337.66,144.7c4.71-3.14,6.75-9.26,3.76-14.36-2.76-4.73-9.59-6.87-14.36-3.77q-49.15,31.91-100.68,59.91c-2,1.06-3.91,2.13-5.87,3.17-.48.26-4.37,1.61-4.75,2.1l.7.05q3.1,0,4,4.17c-.47.35.81-2.35,0-.75.76-1.57,1.11-3.56,1.81-5.2a124.8,124.8,0,0,1,11.62-20.62c8.62-12.73,19-24.1,29.2-35.59,12.23-13.83,24.34-28,33.7-43.94,4.23-7.2-3-19.05-11.85-15.42a283.17,283.17,0,0,0-82.92,52c-4.21,3.8-3.87,11,0,14.85,4.22,4.22,10.58,3.76,14.85,0q34.5-30.42,69.69-60c3.95-3.33,3.83-10,.82-13.79-3.52-4.41-8.59-4.84-13.55-2.7L223.36,86.53l14.37,14.36C248.29,84,264.32,71.48,280,59.5c4.15-3.19,6.57-7.92,4.29-13.11-1.94-4.42-7.41-8-12.38-6.08L234.14,54.49,244.35,72,264,50.45c7.24-8,.08-19.62-10.22-17.55a55.66,55.66,0,0,0-27,14.24c-9.88,9.25,5,24.08,14.85,14.84a35.27,35.27,0,0,1,17.78-8.83L249.11,35.6,229.5,57.19c-6.46,7.12-.28,21.5,10.22,17.55l37.72-14.18-8.09-19.2c-18.61,14.27-37.17,28.77-49.76,48.94A10.67,10.67,0,0,0,221.23,103c3.57,3.56,8.38,3.51,12.73,1.64L284.43,82.9,271.71,66.41Q236.52,96,202,126.45l14.85,14.85a254.14,254.14,0,0,1,73.65-46.6L278.66,79.28c-18.23,31.11-47.21,54.07-66.24,84.65-4.73,7.6-9.76,16.28-12,25-2.91,11.08,2.69,23.44,15.34,23.75,10.37.26,20.91-7.83,29.62-12.63q14.61-8,29-16.42Q306.49,165,337.66,144.7l-10.6-18.13L223.92,195.35l12.73,16.5c33.47-34.07,72.74-61.26,111.93-88.23,11.26-7.76,1.65-23.66-10.6-18.14-49.24,22.19-93.08,54-136.51,85.73l14.36,14.37c11.83-20.82,30.45-36.24,49.88-49.7,23.21-16.09,47.17-31.16,70.8-46.63,11.47-7.52,1.57-23.71-10.6-18.14a541.44,541.44,0,0,0-143.57,96.4l14.85,14.85A432.63,432.63,0,0,1,337.94,99.11c5.16-2.37,6.43-9.82,3.77-14.37-3.1-5.29-9.19-6.14-14.37-3.76Z" transform="translate(-13.07 -18.17)"/><path class="cls-1" d="M219.37,200.88l-3.86-.61-2.79,20.62A646,646,0,0,0,348,215l-5.59-20.25a1144.41,1144.41,0,0,1-121.32,11.9c-13.46.61-13.57,20.63,0,21,36.41,1,72.83,1.69,109.25,1.69,34,0,69.07,1,100.77-13.17,9.93-4.44,4.4-19.5-5.3-19.57-33.17-.23-66.34-.45-99.5-1-15.59-.28-31.25-.28-46.81-1.4-13.46-1-27-3.34-39-9.8L235.2,204c67-.47,134.61-1.26,200.12-16.92,11.39-2.72,9.13-21.2-2.8-20.63-60.4,2.93-121.62,6-181.51-4.42l-2.79,20.62c67.91-7.36,136.06-14.78,202.62-30.66,5.51-1.31,8.79-7.58,7.33-12.91-1.66-6-7.28-8.15-12.92-7.34L283.63,155.12c-2.95.43-5.9,1-8.87,1.29-1.51.16-2.47-.27-3.2,0l.78,12.29c1-.33,2-.62,2.94-.89l3.53-1q5.32-1.46,10.67-2.76c11.91-2.9,23.95-5.24,36-7.26,24.86-4.16,49.91-7,74.85-10.59,27.86-4,55.62-9.16,82.39-18.06,11.12-3.7,9.34-20.31-2.8-20.62a792.56,792.56,0,0,0-109.68,4.69c-16.77,1.9-33.46,4.92-50.31,6-15,1-30.58.35-44.31-6.51v18.13c15-6.63,33.89-3.42,49.74-2.84,18.2.66,36.4,1.12,54.61,1.06,37.27-.14,74.55-2.62,111.22-9.49C503,116.37,500,97.93,488.42,98c-32.19.06-64.38.13-96.57-.44-15.32-.27-30.67-.52-46-1.33-12.87-.69-25.76-2.38-36.73-9.65l-5.3,19.56A783,783,0,0,0,490.51,87.62C501.89,85.1,499.62,66,487.72,67L346.54,78.62c-13.34,1.1-13.67,20.47,0,21l158.62,6.2c13.52.53,13.49-20.47,0-21l-158.62-6.2v21L487.72,88l-2.79-20.63A758.53,758.53,0,0,1,303.85,85.1c-10.91-.24-13.6,14.06-5.29,19.57,12.36,8.2,27,11,41.55,12.14,15.87,1.26,31.89,1.33,47.8,1.64,33.5.64,67,.57,100.51.51l-2.79-20.63c-36.74,6.89-74.16,8.83-111.48,8.74-18.86,0-37.71-.61-56.55-1.36-18.06-.71-35.65-1.45-52.55,6-7.12,3.14-6.61,14.83,0,18.13,32.07,16,67.47,7.84,101.32,3.84A790.83,790.83,0,0,1,480,128.54l-2.79-20.63c-53.22,17.71-109.62,20.08-164.48,29.9-13.87,2.48-27.66,5.45-41.22,9.27-6.55,1.84-13.5,4.28-15.85,11.42a13.92,13.92,0,0,0,6.83,16.73c6,3.23,12.45,2.22,18.89,1.28L305,173.09l45.33-6.57L450.84,152l-5.59-20.25c-64.75,15.45-131,22.75-197,29.91-5.19.57-9.66,3.56-10.31,9.11-.57,4.75,2.3,10.61,7.52,11.52,61.89,10.79,124.65,8.19,187.09,5.17l-2.79-20.62C366.06,182,300.31,182.5,235.2,183c-10.14.07-14.66,14.53-5.3,19.57,28.07,15.1,61.52,13.41,92.44,14,34.49.65,69,.89,103.48,1.12l-5.3-19.56c-28.91,12.91-63.27,10.34-94.14,10.3-35.1,0-70.2-.75-105.28-1.69v21A1200,1200,0,0,0,348,215c5.61-.86,8.71-7.91,7.33-12.92-1.65-6-7.28-8.16-12.92-7.33a620.38,620.38,0,0,1-129.7,5.1c-11.63-.74-14.56,18.76-2.79,20.63l3.86.61c5.59.89,11.29-1.44,12.92-7.34,1.37-5-1.71-12-7.34-12.91Z" transform="translate(-13.07 -18.17)"/><path class="cls-1" d="M383.25,163.84a85.48,85.48,0,0,0,45.65,18.45v-21A229.41,229.41,0,0,1,380,150.83v20.25a222.84,222.84,0,0,1,86.1,2.78V153.61l-95.78,13.33c-11.59,1.62-9,22.14,2.79,20.63,55.39-7.12,117.5-17.45,154.1-64.41,3.22-4.13,4.35-9.36.83-13.78-3.17-4-9-5.52-13.55-2.71a515.31,515.31,0,0,0-77.38,58.89l14.85,14.85q52.33-60,110.37-114.74c8.56-8.06-2.66-23.14-12.72-16.49A519.86,519.86,0,0,0,436.38,150.3c-3.63,4.36-4.27,10.58,0,14.85,3.94,3.94,10.92,4.12,14.85,0A770.88,770.88,0,0,1,563.2,68C567.82,64.68,570,58.8,567,53.6c-2.8-4.78-9.55-6.81-14.37-3.77a1057,1057,0,0,0-111.31,80.92l14.85,14.85a667.67,667.67,0,0,1,92.06-86c10.6-8.15,1.89-24-10.6-18.14a288.07,288.07,0,0,0-92.53,69.06c-7.72,8.66,2,22.73,12.72,16.49L571.6,60.43c10.06-5.88,3.48-22.93-8.09-19.19A30.49,30.49,0,0,1,554,43a26.16,26.16,0,0,1-5.22-.5c-.4-.08-2.3-.82-2.61-.66,0,0,.86,7.81.9,7.86.6.69-2.52,0,.12.32.06,0,1-.19,1.23-.23,1.9-.3,3.88-.35,5.79-.49q6.76-.48,13.55-.56a219.16,219.16,0,0,1,48.2,4.63c10.31,2.19,23.49,5.21,27.94,16,2.72,6.64,2.7,14.4,3.29,21.43l2.11,25.36c1.28,15.41,3.1,30.88,3.61,46.34.35,10.82.13,24-7.94,32.27-8.2,8.44-21.29,9-32.33,8.63-15.15-.49-30.18-3-45.2.52-15.43,3.6-32.63,16.88-28.39,34.74,1.7,7.15,7.21,12.55,13.54,15.88,2.68,1.41,5.53,2.49,8.24,3.83a31,31,0,0,1,3.66,2c.71.48,1.3,1.05,1.24,1,3.31,4.59,9.14,6.82,14.36,3.76,4.54-2.65,7.1-9.74,3.77-14.36-4.16-5.78-9.37-9.16-15.75-12.05a45.57,45.57,0,0,1-7.44-3.77c-.1-.06-1.41-1.33-1.44-.93.4-5.75,8.46-8.5,13-9.63,7.73-1.94,15.87-1.54,23.75-1.05,15.42,1,31.51,2.78,46.36-2.76a46.45,46.45,0,0,0,29.6-33.74c3.68-15.85,1.58-32.24.25-48.23-1.56-18.73-3-37.48-4.68-56.2-.81-8.85-2-17.82-6.45-25.69a41.76,41.76,0,0,0-17-16c-15.14-8-33.36-10.17-50.13-11.85a233.58,233.58,0,0,0-31-1c-9.78.33-23.24-.49-30.7,7a15.79,15.79,0,0,0,4.59,25.76c9.81,4.63,22.2,4.2,32.33.93L561,42.3,447.19,108.82l12.73,16.5A272.76,272.76,0,0,1,548.2,59.55L537.6,41.41a694,694,0,0,0-96.31,89.34c-9.08,10.23,4.52,23.43,14.85,14.85A1013.8,1013.8,0,0,1,563.2,68L552.6,49.83A798.45,798.45,0,0,0,436.38,150.3l14.85,14.85A501.32,501.32,0,0,1,560.17,67.31L547.44,50.82q-58,54.63-110.37,114.74c-8.84,10.14,4.83,24.08,14.85,14.85a487.17,487.17,0,0,1,73.13-55.61l-12.73-16.49c-33.12,42.5-89,51.8-139.25,58.26l2.79,20.62,95.79-13.33c10.46-1.46,9.54-18.06,0-20.25a250.05,250.05,0,0,0-97.27-2.78c-4.48.74-7.71,5.86-7.71,10.12a10.82,10.82,0,0,0,7.71,10.13,254.77,254.77,0,0,0,54.52,11.21c5.65.56,10.5-5.22,10.5-10.5,0-6.14-4.84-9.94-10.5-10.5A60.07,60.07,0,0,1,398.1,149c-4.45-3.51-10.51-4.34-14.85,0-3.65,3.64-4.48,11.32,0,14.85Z" transform="translate(-13.07 -18.17)"/><path class="cls-1" d="M584.83,251.86h-.57a10.18,10.18,0,0,0-9.6,6.46,8,8,0,0,0-.9,4l.38,2.79a10.34,10.34,0,0,0,2.7,4.64l2.12,1.64a10.41,10.41,0,0,0,5.3,1.43h.57a10.12,10.12,0,0,0,9.59-6.45,7.94,7.94,0,0,0,.91-4.05l-.38-2.79a10.49,10.49,0,0,0-2.7-4.63l-2.13-1.64a10.46,10.46,0,0,0-5.29-1.44Z" transform="translate(-13.07 -18.17)"/><path class="cls-1" d="M542.25,251.07c.06,0,1.88-.5,2-.29l11.86-15.42a851.24,851.24,0,0,0-178.59-16.74c-13.51.17-13.54,21.17,0,21a824.17,824.17,0,0,1,173,16c8,1.61,17.76-7.39,11.86-15.43-4.79-6.52-11.76-11-20.17-10.11-5.64.59-10.5,4.4-10.5,10.5,0,5.22,4.83,11.09,10.5,10.5Z" transform="translate(-13.07 -18.17)"/><path class="cls-1" d="M391.07,207.26A496.42,496.42,0,0,0,463,199.67c10.51-1.87,9.47-17.7,0-20.25-21.6-5.79-43.09-.19-64.57,3.19A120.54,120.54,0,0,1,384.26,184c-.91,0-5.76-.52-6.18-.1.08-.08,2.05,2.25,1.74,2.34.52-.15,2.26-7,2.41-7.44.85-2.43,1.72-4.84,2.61-7.26,2-5.47,4.17-10.91,6.47-16.28,2.23-5.21,1.55-11.26-3.77-14.37a10.67,10.67,0,0,0-14.36,3.77l-23.39,36.51c-3.05,4.78-1,11.59,3.77,14.37,5.42,3.17,10.9.74,14.37-3.77l6.82-8.87c3.47-4.49.69-11.75-3.76-14.36-5.42-3.17-10.9-.74-14.37,3.77l-6.83,8.86,18.14,10.6,23.38-36.51-18.13-10.6c-2.89,6.74-5.69,13.52-8.26,20.4-2.06,5.52-4.58,11.25-5.64,17.07-1.35,7.38.72,15.07,7.3,19.32,5,3.23,11,3.73,16.79,3.57,24.46-.66,49.7-11.92,74.05-5.39V179.42a457.23,457.23,0,0,1-66.35,6.84c-13.48.42-13.54,21.42,0,21Z" transform="translate(-13.07 -18.17)"/><path class="cls-1" d="M427.56,223.09c46.09-40.78,76.22-96,121.81-137.27a199.19,199.19,0,0,1,40.12-28.43L576.76,40.9c-50.15,51-105.33,100.87-140.47,164-5.77,10.37,7.87,21.19,16.49,12.72C499.51,171.76,545,122.82,598.93,85.2L586.21,68.71c-26.29,23.36-52.62,46.76-77,72.13A518.28,518.28,0,0,0,475,179.79c-10.83,13.8-20.36,28.34-25.58,45.24-3.1,10.05,10.35,17.64,17.55,10.21,45.59-47,91.64-94.56,146.66-130.7L600.88,88.05C560.19,127.53,518.71,168.26,493,219.54c-5.42,10.82,7.37,20.56,16.49,12.73L610.42,145.6l-14.85-14.85c-26,27.58-51.91,55.37-73.39,86.71-5.77,8.42,5.9,20.53,14.37,14.36l35.64-26-14.37-14.37A140.37,140.37,0,0,1,528,223.64l17.55,10.22c2.78-9.05-1.41-18.48-8.95-23.79-8-5.61-18.17-5.75-27.49-6.72l-59-6.19v21l52.16,1.71-2.79-20.62c-23.52,5.66-48.21,11.91-72.56,8.36v20.25c37.11-7.22,76.16.22,108.37,19.86l8.09-19.19a133.47,133.47,0,0,1-41.93-15.73l-5.3,19.57A267.89,267.89,0,0,1,541.76,241c8.41,2.32,14.08-5.3,12.92-12.92-1.81-11.81,5.6-23.53,13.81-31.25,10.24-9.62,23.51-15.55,36.09-21.45l-12.73-16.49-40.44,35.38c-7.83,6.86.44,20.83,10.22,17.55,23.08-7.73,48-16.57,72.76-12.91V178.64a240.32,240.32,0,0,1-64.82,11.68c-13.52.53-13.51,20.37,0,21L638,214.5l-2.79-20.63L573.87,208.4c-11.79,2.79-8.81,20.28,2.79,20.62,22.46.68,45.53-1.12,67.42-6.38,10-2.39,19.41-7.48,23.32-17.47,4-10.27,1.14-21.95-.14-32.52-2.82-23.05-5.78-46.1-9.82-69C654,83.94,652,59.07,634.27,46.41c-20.65-14.78-46.58-4.9-66.16,6.3-8.6,4.92-5.38,20.49,5.3,19.57a144.63,144.63,0,0,1,61.49,7.91V59.94a206.19,206.19,0,0,1-53.63,5l5.3,19.57a95.84,95.84,0,0,1,38.3-7.69l-2.79-20.62c-22.45,4.06-44.85,8.59-65.13,19.51-7.4,4-6.59,17.79,2.51,19.2a225.94,225.94,0,0,0,86.31-3.12l-5.59-20.25C620,77,600.2,83.13,583.93,96.74c-8.31,6.94.65,20.2,10.22,17.55l46.64-12.93-8.1-19.19c-37.29,23.53-75.05,48.18-100.24,85.27-5.69,8.38,5.94,20.7,14.37,14.37l94.83-71.16L628.93,94.16c-29.94,24.5-59.69,49.48-81.76,81.62-7,10.13,8.08,20.63,16.49,12.73l80-75.12-16.49-12.72-52.27,77.15C568,187.9,583,198.69,591.35,190.55l69.59-67.91-14.85-14.85c-19.92,23.39-40,47.64-48.58,77.74-2.8,9.84,10.37,18.06,17.55,10.22a673.58,673.58,0,0,0,45.2-55.09l-18.13-10.6a230.24,230.24,0,0,0-25.88,60.36,10.49,10.49,0,0,0,6.08,12.38c5.25,2.12,9.83,0,13.11-4.29l25.75-33.61-18.14-10.6-16.11,37.81c-2.06,4.81-1.84,10.15,2.7,13.54,3.76,2.81,10.54,3.37,13.79-.82l21.5-27.74-16.49-12.72L643,176.86c-2.27,5.2-1.53,11.27,3.77,14.37,4.45,2.6,12.08,1.46,14.36-3.77l5.47-12.5c2.1-4.79,1.8-10.17-2.7-13.54-3.76-2.81-10.55-3.37-13.79.82L628.58,190l16.49,12.72,16.12-37.8c5.33-12.51-9.86-21.4-18.14-10.6l-25.74,33.61L636.5,196a209.5,209.5,0,0,1,23.76-55.34,10.65,10.65,0,0,0-3.77-14.37c-5.33-3.12-11-.81-14.36,3.77a623.59,623.59,0,0,1-41.92,50.84l17.55,10.22c7.54-26.48,25.66-47.91,43.18-68.48,8.67-10.17-5-24.42-14.85-14.85L576.5,175.7,593,188.42l52.27-77.15c6.89-10.17-8.07-20.64-16.49-12.73l-80,75.12,16.49,12.72c20.94-30.49,50.09-54.15,78.48-77.37,9.12-7.47-3.17-23.66-12.73-16.49l-94.83,71.16L550.58,178c23-33.91,58.68-56.26,92.71-77.74,9.89-6.24,3.67-22.45-8.09-19.19L588.56,94l10.22,17.54c13.22-11,30.71-15.4,47-19.77,13.08-3.5,7.56-23.32-5.59-20.25A198.21,198.21,0,0,1,565,74.68l2.51,19.19c18.55-10,39.59-13.69,60.12-17.4,11.84-2.14,8.79-20.64-2.8-20.63A121.71,121.71,0,0,0,576,66.39c-4.19,1.83-6,7.77-4.83,11.86A10.79,10.79,0,0,0,581.27,86a228.53,228.53,0,0,0,59.21-5.77c10.79-2.49,9.13-17,0-20.25a159.64,159.64,0,0,0-67.07-8.66l5.3,19.57c12-6.89,28.79-16,42.46-7.95,6,3.52,8.26,10.05,9.94,16.44,2.33,8.89,3.94,18,5.57,27.06,3.39,18.79,6,37.7,8.39,56.63,1.16,9.31,2.78,18.72,3.31,28.09.13,2.37.52,5.5-1.07,7.49-1.77,2.23-5.5,2.95-8.1,3.61-20.26,5.13-41.73,6.43-62.55,5.8l2.79,20.63,61.34-14.53c11.9-2.81,8.72-20.09-2.79-20.62l-68.43-3.18v21A261.63,261.63,0,0,0,640,198.89a10.8,10.8,0,0,0,7.71-10.13c0-4.21-3.22-9.46-7.71-10.12-29-4.29-56.62,3.76-83.92,12.91l10.21,17.55,40.44-35.38c3.9-3.41,3.88-9.95.83-13.79-3.44-4.32-8.68-5-13.55-2.7-15.64,7.34-31.87,15.17-43.71,28.14-12.21,13.39-18.61,30.19-15.84,48.27l12.91-12.91a299.53,299.53,0,0,0-51.2-9.36c-10.74-1-13.76,14.63-5.3,19.57a151.35,151.35,0,0,0,46.94,17.84c11.4,2.23,18.66-12.75,8.1-19.19-37.18-22.67-81.91-30.27-124.56-22-9.78,1.91-10.26,18.76,0,20.25,28.46,4.14,56.13-1.71,83.73-8.36,11.79-2.84,8.81-20.25-2.79-20.63l-52.16-1.71c-5.68-.19-10.5,5-10.5,10.5,0,6.17,4.83,9.9,10.5,10.5l45.47,4.77c7.31.76,14.69,1.3,22,2.3,2.34.33,5.42.64,7.35,2.17,1.08.86.24,1.44.41.88a10.64,10.64,0,0,0,4.83,11.85c4.33,2.54,9,1.3,12.72-1.64a157.56,157.56,0,0,0,33.1-36.4c5.61-8.45-5.84-20.58-14.37-14.36l-35.64,26,14.36,14.37c20.46-29.84,45.35-56.2,70.11-82.46,9.38-9.94-4.67-23.58-14.85-14.85L494.65,217.42l16.49,12.72c24.94-49.77,65.1-88.93,104.59-127.24,8.4-8.16-2.6-23.14-12.73-16.49-56.56,37.15-104,85.64-150.91,134l17.55,10.21c4.62-14.94,13.68-28,23.44-40.05,10.55-13,21.82-25.48,33.51-37.5,23.68-24.36,49.09-46.95,74.47-69.51,8.79-7.81-2.88-23.36-12.73-16.49C532.85,105.77,486,155.6,437.93,202.8l16.49,12.72c16.68-30,38.2-56.62,61.37-81.78,24.55-26.67,50.41-52.15,75.82-78,8.49-8.63-2.24-22-12.72-16.49C523.58,68.61,489.49,122.41,450.31,169a370.65,370.65,0,0,1-37.6,39.23c-4.25,3.76-3.84,11,0,14.85,4.22,4.22,10.59,3.76,14.85,0Z" transform="translate(-13.07 -18.17)"/><path class="cls-1" d="M510.25,188.72c1.63-.62,2-.82,1.27-.61-.55.13-.34.11.62-.05,2.25-.31,0,.07-.17-.14.11.11,2.89.67,1,0-1.09-.38,2.53,1.24.81.29-1.24-.68.74.45.84.71,0-.06-1.63-1.82-.24-.1.58.8.66.86.23.19l.62,1.56a8.78,8.78,0,0,0-.36-1.54c-.35-2.42-2.82-5.1-4.82-6.28a10.52,10.52,0,0,0-14.37,3.77,12.27,12.27,0,0,0-1.06,8.09c.73,5,4.67,9.68,9,12,5.66,3,11.46,2.79,17.21.25,2.25-1,4.2-4,4.82-6.27a10.68,10.68,0,0,0-1.06-8.09c-3.36-5.22-9-6.15-14.36-3.77Z" transform="translate(-13.07 -18.17)"/></g><g id="Layer_2" data-name="Layer 2"><path d="M21.18,42.29c-3.74,26.95-6.27,54-7.4,81.22q-.85,20.58-.68,41.17c.11,11.74-.87,24.93,3.18,36.17,3.69,10.27,11.88,16.44,21.87,20.07,11.67,4.24,24.38,6.35,36.54,8.69a710.12,710.12,0,0,0,78.67,10.29c103.93,8.15,208.47-1.84,312.29,8.65,56.15,5.67,112.15,17.54,163.68,41.08,5.17,2.36,9.73-5,4.55-7.77a301.47,301.47,0,0,1-70.75-53.09l-2,7.52c26.84-9.18,55.64,2.32,82.83-5.52,11.18-3.23,21.34-9.63,27.45-19.73,7-11.47,7.88-25.42,8.27-38.49.95-32.35-.54-65.31-5.91-97.26-2.12-12.63-6.25-25.53-16.15-34.25-9.3-8.2-21.46-11.94-33.5-13.85-14.48-2.3-29.26-3-43.88-4Q555.64,21.49,531,20.52c-33.22-1.32-66.46-1.83-99.7-2-66.7-.4-133.41-.15-200.12-.17-32.68,0-65.39-.4-98.07.13-29.74.48-60,2.48-88.55,11.44a188.87,188.87,0,0,0-20.17,7.68c-5.28,2.35-.71,10.11,4.55,7.78,26.54-11.8,55.59-15.9,84.38-17.29,30.24-1.47,60.62-.75,90.88-.74q95.28,0,190.56.05c62.85.07,125.75.6,188.47,5,14,1,28.4,1.5,42.25,4.15,11.7,2.24,23.94,6.53,31.08,16.69,7.91,11.25,9.05,26.26,10.61,39.49q2.73,23.06,3.48,46.28c.53,16.34,1.33,33.45-1.1,49.69-2.17,14.52-9.25,26.35-23.26,31.86-28.07,11.06-59-2.65-87.52,7.09a4.56,4.56,0,0,0-2,7.52,310,310,0,0,0,72.57,54.5l4.55-7.77c-89.79-41-189.92-47.14-287.24-47.55-51.71-.22-103.43,1-155.11-1.16-26.08-1.07-52.13-3-78-6.36q-20.19-2.62-40.19-6.59c-11.33-2.26-23.49-4.11-34.24-8.5-6-2.45-11.12-6.23-13.73-12.31s-2.78-12.64-3-19c-.45-15-.42-30.07,0-45.09a820.11,820.11,0,0,1,7.48-90.59c.78-5.66-7.89-8.11-8.68-2.39Z" transform="translate(-13.07 -18.17)"/></g></svg>